<?xml version="1.0" encoding="utf-8"?>
<!-- Generator: Adobe Illustrator 26.5.0, SVG Export Plug-In . SVG Version: 6.00 Build 0)  -->
<svg width="256" height="128" version="1.1" id="레이어_1" xmlns="http://www.w3.org/2000/svg" xmlns:xlink="http://www.w3.org/1999/xlink" x="0px"
	 y="0px" viewBox="0 0 283.46 141.73" style="enable-background:new 0 0 283.46 141.73;" xml:space="preserve">
<style type="text/css">
	.st0{fill:#fff;}
</style>
<g>
	<path class="st0" d="M17.16,86.59c-4.4-4.4-6.6-9.71-6.6-15.92s2.2-11.52,6.6-15.92c4.4-4.4,9.71-6.6,15.92-6.6
		c6.21,0,11.52,2.2,15.92,6.6c4.4,4.4,6.6,9.71,6.6,15.92S53.4,82.19,49,86.59c-4.4,4.4-9.71,6.6-15.92,6.6
		C26.87,93.19,21.56,90.99,17.16,86.59z M21.91,59.5c-3.08,3.09-4.63,6.81-4.63,11.17s1.54,8.08,4.63,11.17
		c3.09,3.09,6.81,4.63,11.17,4.63c4.36,0,8.08-1.54,11.17-4.63c3.08-3.09,4.63-6.81,4.63-11.17s-1.54-8.08-4.63-11.17
		c-3.09-3.09-6.81-4.63-11.17-4.63C28.72,54.87,25,56.41,21.91,59.5z"/>
	<path class="st0" d="M92.94,48.6v44.16h-7.01L67.05,61.19v31.57h-6.7V48.6h7.01l18.85,31.57V48.6H92.94z"/>
	<path class="st0" d="M122.44,48.6v6.7h-15.83v11.97h12.22v6.7h-12.22v12.1h15.83v6.7H99.92V48.6H122.44z"/>
	<path class="st0" d="M125.96,66.29h20.4v6.7h-20.4V66.29z"/>
	<path class="st0" d="M175.57,48.6v6.7h-9.35v37.46h-6.73V55.3h-9.35v-6.7H175.57z"/>
	<path class="st0" d="M208.62,48.6v44.16h-6.73V82.45h-15l-6.51,10.31h-7.93l27.92-44.16H208.62z M191.13,75.76h10.77v-17
		L191.13,75.76z"/>
	<path class="st0" d="M236.73,86.47c2.67,0,5.17-0.63,7.5-1.88v7.31c-2.43,0.86-4.93,1.3-7.5,1.3c-6.21,0-11.52-2.2-15.92-6.6
		c-4.4-4.4-6.6-9.71-6.6-15.92s2.2-11.52,6.6-15.92s9.71-6.6,15.92-6.6c2.57,0,5.07,0.42,7.5,1.26v7.34
		c-2.32-1.28-4.82-1.91-7.5-1.91c-4.36,0-8.08,1.55-11.17,4.66c-3.09,3.09-4.63,6.81-4.63,11.17s1.54,8.08,4.63,11.17
		C228.65,84.92,232.37,86.47,236.73,86.47z"/>
	<path class="st0" d="M273.67,48.6v6.7h-9.35v37.46h-6.73V55.3h-9.35v-6.7H273.67z"/>
</g>
</svg>
